<svg width="45" height="46" viewBox="0 0 45 46" fill="none" xmlns="http://www.w3.org/2000/svg">
<path d="M43.2191 9.88703C44.2027 9.88703 45 9.08224 45 8.08939C45 7.09654 44.2027 6.29175 43.2191 6.29175C42.3761 6.29175 41.6729 6.88522 41.4889 7.67978L32.7089 9.47742C32.286 8.63725 31.4924 8.0219 30.5448 7.84921L30.4064 3.94346C31.1332 3.63019 31.6436 2.90313 31.6436 2.05412C31.6432 0.919767 30.732 0 29.6077 0C28.4839 0 27.5723 0.919767 27.5723 2.05458C27.5723 3.02555 28.2414 3.8336 29.1383 4.04819L29.2743 7.89064C28.5194 8.07868 27.8766 8.54927 27.4625 9.18743L20.2651 4.79387C20.2988 4.65609 20.3218 4.51366 20.3218 4.36564C20.3218 3.37232 19.5245 2.56799 18.5409 2.56799C17.5578 2.56799 16.76 3.37232 16.76 4.36564C16.76 5.35895 17.5573 6.16328 18.5409 6.16328C18.9121 6.16328 19.2566 6.04784 19.5416 5.85188L27.0042 10.4084C26.982 10.5568 26.9673 10.7081 26.9673 10.8627C26.9673 11.3109 27.065 11.7354 27.2361 12.119L15.8986 23.536C15.3752 23.104 14.707 22.8443 13.978 22.8443C13.3587 22.8443 12.7836 23.0324 12.3036 23.3535L6.9235 17.9229C7.20756 17.5156 7.37772 17.0213 7.37772 16.4855C7.37772 15.1026 6.26731 13.9818 4.89727 13.9818C3.52723 13.9818 2.41682 15.1026 2.41682 16.4855C2.41682 17.8684 3.52769 18.9893 4.89727 18.9893C5.27217 18.9893 5.62448 18.899 5.94313 18.7482L11.4145 24.2714C11.1166 24.7457 10.9418 25.3062 10.9418 25.909C10.9418 26.1403 10.9695 26.3646 11.0175 26.5811L3.26438 29.211C2.94528 28.726 2.40068 28.4062 1.78091 28.4062C0.797305 28.4062 0 29.211 0 30.2038C0 31.1967 0.797305 32.0005 1.78091 32.0005C2.67275 32.0005 3.40457 31.3373 3.53461 30.4738L11.5575 27.7527C12.0177 28.3671 12.7006 28.7995 13.4864 28.9289L13.485 33.5301C12.5752 33.7344 11.8941 34.5518 11.8941 35.5321C11.8941 36.6669 12.8053 37.5862 13.9295 37.5862C15.0538 37.5862 15.965 36.6664 15.965 35.5321C15.965 34.6951 15.4679 33.9783 14.7568 33.6585L14.7587 28.867C15.6339 28.6319 16.3519 28.0143 16.7282 27.2006L26.9894 29.2864C26.9742 29.3953 26.9562 29.5028 26.9562 29.6155C26.9562 30.9328 28.0145 32.001 29.3195 32.001C29.492 32.001 29.6589 31.9801 29.8208 31.9447L31.4988 36.1293C31.0147 36.5184 30.6979 37.11 30.6979 37.784C30.6979 38.1285 30.7869 38.4496 30.9321 38.7368L27.5266 42.3409C27.5114 42.3349 27.498 42.3251 27.4819 42.3195C26.5568 41.983 25.5364 42.4685 25.2039 43.4022C24.8714 44.3359 25.3514 45.3656 26.2765 45.7016C27.2024 46.0377 28.222 45.5522 28.555 44.6185C28.7265 44.1367 28.6785 43.6312 28.4678 43.2058L31.8253 39.651C32.1172 39.806 32.4442 39.9014 32.796 39.9014C33.3471 39.9014 33.8442 39.6827 34.2191 39.3317L40.5334 43.6163C40.4698 43.8007 40.4283 43.9957 40.4283 44.2033C40.4283 45.1961 41.2256 46 42.2083 46C43.1919 46 43.9892 45.1952 43.9892 44.2033C43.9892 43.21 43.1919 42.4056 42.2083 42.4056C41.9002 42.4056 41.6139 42.4922 41.3607 42.6319L34.8499 38.2141C34.8785 38.0749 34.8947 37.9311 34.8947 37.7831C34.8947 36.6124 33.9549 35.6643 32.7956 35.6643C32.7587 35.6643 32.725 35.6731 32.689 35.6745L30.9579 31.3284C31.4034 30.8946 31.6824 30.2886 31.6824 29.6146C31.6824 28.2973 30.6241 27.229 29.3191 27.229C28.584 27.229 27.9352 27.5749 27.5022 28.1069L17.0118 25.9415C17.0118 25.9304 17.0132 25.9197 17.0132 25.9085C17.0132 25.4169 16.896 24.9543 16.6922 24.5428L27.9905 13.1518C28.5264 13.6317 29.2301 13.9259 30.0025 13.9259C30.6268 13.9259 31.206 13.7351 31.6884 13.4092L37.5462 19.3221C37.4328 19.5781 37.3659 19.8602 37.3659 20.1585C37.3659 21.2938 38.2776 22.2131 39.4013 22.2131C40.5251 22.2131 41.4363 21.2938 41.4363 20.1585C41.4363 19.0237 40.5251 18.104 39.4013 18.104C39.0384 18.104 38.7023 18.2078 38.4081 18.3758L32.5742 12.4867C32.867 12.0152 33.039 11.4594 33.039 10.8622C33.039 10.8142 33.034 10.7682 33.0317 10.7207L41.6664 8.9533C41.9699 9.50768 42.5477 9.88703 43.2191 9.88703Z" fill="#080F33"/>
</svg>
