<svg width="44" height="49" viewBox="0 0 44 49" fill="none" xmlns="http://www.w3.org/2000/svg">
<path d="M8.60879 29.6293V32.1561L10.1764 33.7531C10.4618 34.044 10.6221 34.4384 10.6221 34.8497C10.6221 35.261 10.4618 35.6554 10.1764 35.9464L8.84196 37.3058L10.1814 38.6652C10.4668 38.9562 10.6271 39.3506 10.6271 39.7619C10.6271 40.1732 10.4668 40.5676 10.1814 40.8585L8.60879 42.4757V43.6532L11.0893 46.1801L13.5697 43.6532V29.6293C13.5694 29.3775 13.6429 29.1314 13.7807 28.9225C13.9186 28.7136 14.1146 28.5515 14.3436 28.4568C14.8171 28.2599 15.272 28.0197 15.7029 27.7392C15.9273 27.5208 16.226 27.3995 16.5363 27.4006C16.8052 27.3993 17.0676 27.4853 17.2852 27.6461C17.5029 27.807 17.6646 28.0343 17.7468 28.2951C17.8262 28.5538 17.8207 28.8319 17.7312 29.0872C17.6417 29.3425 17.473 29.5611 17.2507 29.7101C16.8578 29.9803 16.4485 30.2251 16.0254 30.4429V43.9109C16.0145 44.4118 15.8093 44.8878 15.4549 45.235L12.2451 48.5047C11.9311 48.822 11.5067 49 11.0644 49C10.6222 49 10.1978 48.822 9.88375 48.5047L6.679 45.235C6.33226 44.8842 6.13453 44.4087 6.12833 43.9109V42.2685C6.12813 42.003 6.17928 41.74 6.27887 41.4946C6.37847 41.2492 6.52454 41.0262 6.70876 40.8383L7.74559 39.7821L6.90224 38.9179C6.69659 38.7086 6.53345 38.46 6.42214 38.1865C6.31083 37.9129 6.25354 37.6196 6.25354 37.3235C6.25354 37.0273 6.31083 36.7341 6.42214 36.4605C6.53345 36.1869 6.69659 35.9384 6.90224 35.7291L7.75055 34.8649L6.71372 33.8087C6.52861 33.6212 6.38162 33.3984 6.28117 33.153C6.18071 32.9076 6.12878 32.6444 6.12833 32.3785V30.4429C4.46945 29.6013 3.0448 28.3485 1.98531 26.7995C0.925819 25.2506 0.265466 23.4553 0.0649321 21.5785C-0.135602 19.7017 0.130114 17.8036 0.837665 16.0588C1.54521 14.3139 2.6719 12.7782 4.1142 11.5927C4.37078 11.3895 4.69542 11.297 5.01828 11.3351C5.34113 11.3732 5.63639 11.5389 5.84054 11.7965C6.04468 12.0542 6.14139 12.3831 6.10986 12.7127C6.07833 13.0422 5.92107 13.346 5.67193 13.5586C4.50974 14.5142 3.61263 15.7624 3.06938 17.1796C2.52613 18.5969 2.35557 20.1341 2.57457 21.6391C2.79358 23.1441 3.39456 24.5648 4.31804 25.7606C5.24152 26.9563 6.4555 27.8857 7.83985 28.4568C8.0679 28.5523 8.26286 28.7148 8.39982 28.9236C8.53678 29.1324 8.60954 29.3781 8.60879 29.6293ZM37.0498 36.4618C36.5275 36.4609 36.0266 36.2503 35.6557 35.8756L34.3461 34.5414C33.9535 34.1384 33.7341 33.5931 33.7359 33.0253V31.1252H32.1732C31.5477 31.1252 30.9479 30.8724 30.5052 30.4224C30.0625 29.9723 29.8131 29.3618 29.8118 28.7247V27.1277H27.9564C27.3992 27.129 26.8641 26.9055 26.4681 26.5061L24.831 24.8434C22.1508 25.7851 19.2363 25.7735 16.5634 24.8104C13.8905 23.8473 11.617 21.9897 10.114 19.5408C8.61096 17.0919 7.96721 14.1962 8.2878 11.3266C8.6084 8.45692 9.87441 5.78271 11.8792 3.74045C13.8839 1.6982 16.5091 0.408521 19.3261 0.0819297C22.1431 -0.244661 24.9855 0.411125 27.3895 1.94224C29.7935 3.47336 31.617 5.78939 32.5624 8.51227C33.5078 11.2352 33.5192 14.2041 32.5948 16.9344L43.4245 27.9666C43.7911 28.3431 43.9978 28.8513 44 29.3816V34.6981C43.9987 35.1663 43.8152 35.6149 43.4897 35.9456C43.1642 36.2762 42.7233 36.4618 42.2637 36.4618H37.0498ZM36.2163 30.1902V32.8687L37.2631 33.935H41.5195V29.5989L30.2731 18.1423C30.0983 17.9648 29.9794 17.7382 29.9317 17.4916C29.884 17.2449 29.9096 16.9893 30.0052 16.7576C30.9114 14.5709 31.0433 12.1313 30.3783 9.85647C29.7132 7.58164 28.2926 5.61305 26.3597 4.2877C24.4268 2.96236 22.1017 2.36268 19.7825 2.59133C17.4634 2.81999 15.2944 3.86276 13.6468 5.54112C11.9992 7.21948 10.9756 9.42905 10.7512 11.7916C10.5267 14.1541 11.1154 16.5226 12.4164 18.4917C13.7174 20.4608 15.6499 21.9079 17.8829 22.5854C20.116 23.2629 22.5108 23.1286 24.6574 22.2054C24.8849 22.108 25.1358 22.0819 25.3779 22.1305C25.6201 22.1791 25.8425 22.3002 26.0167 22.4783L28.1003 24.6009H30.7295C31.1453 24.6009 31.544 24.7691 31.838 25.0686C32.132 25.3681 32.2972 25.7743 32.2972 26.1978V28.5983H34.6536C35.0677 28.5997 35.4644 28.7678 35.7572 29.066C36.0499 29.3643 36.215 29.7684 36.2163 30.1902ZM21.2095 7.66094C21.8431 8.30695 22.2372 9.15676 22.3246 10.0656C22.4121 10.9744 22.1874 11.886 21.6891 12.645C21.1907 13.404 20.4493 13.9635 19.5914 14.2281C18.7334 14.4928 17.812 14.4461 16.984 14.0962C16.156 13.7463 15.4727 13.1147 15.0506 12.3091C14.6285 11.5036 14.4936 10.5738 14.669 9.67826C14.8444 8.78274 15.3192 7.97689 16.0125 7.39801C16.7058 6.81914 17.5747 6.50307 18.4711 6.50365C19.4983 6.50488 20.4831 6.92107 21.2095 7.66094ZM19.4534 9.44994C19.3231 9.31721 19.1684 9.21192 18.9981 9.14009C18.8279 9.06826 18.6454 9.03128 18.4612 9.03128C18.2769 9.03128 18.0945 9.06826 17.9242 9.14009C17.754 9.21192 17.5993 9.31721 17.469 9.44994C17.3387 9.58268 17.2353 9.74025 17.1648 9.91367C17.0943 10.0871 17.058 10.273 17.058 10.4607C17.058 10.6484 17.0943 10.8343 17.1648 11.0077C17.2353 11.1811 17.3387 11.3387 17.469 11.4714C17.7353 11.7333 18.091 11.8796 18.4612 11.8796C18.8313 11.8796 19.187 11.7333 19.4534 11.4714C19.5852 11.3392 19.6901 11.1817 19.7618 11.0079C19.8335 10.8342 19.8706 10.6477 19.8711 10.4592C19.8715 10.2707 19.8353 10.084 19.7644 9.90993C19.6936 9.73582 19.5895 9.57776 19.4583 9.44489L19.4534 9.44994Z" fill="#080F33"/>
</svg>
