<svg width="50" height="45" viewBox="0 0 50 45" fill="none" xmlns="http://www.w3.org/2000/svg">
<path d="M49.5611 32.0301C48.2265 29.5177 46.7897 26.9659 45.288 24.4426C45.6038 24.0521 45.9157 23.6602 46.2126 23.2717C46.4865 22.9151 46.4348 22.4049 46.0954 22.1097C43.4148 19.7814 40.5532 17.4476 37.5906 15.1729C37.4424 15.0595 37.2587 14.9972 37.0726 14.9972C37.0158 14.9972 36.9583 15.0027 36.9009 15.0144C36.658 15.0641 36.449 15.2166 36.3284 15.4325C35.448 17.0017 34.3908 18.6064 33.1791 20.2118C33.039 19.9327 32.7502 19.7406 32.4171 19.7406H30.1648V13.0685C30.1648 12.5982 29.783 12.2158 29.3126 12.2158H27.8753V5.6712C27.8753 5.20088 27.4934 4.81843 27.0231 4.81843H24.6508V1.48657C24.6508 1.01625 24.2689 0.633789 23.7986 0.633789C23.3283 0.633789 22.9464 1.01625 22.9464 1.48657V4.81843H20.5747C20.1044 4.81843 19.7225 5.20088 19.7225 5.6712V12.2158H18.2851C17.8154 12.2158 17.4329 12.5982 17.4329 13.0685V18.4542C16.8994 17.3821 16.428 16.3229 16.0242 15.2912C15.9335 15.0609 15.7475 14.8818 15.5155 14.7999C15.4241 14.7672 15.3282 14.7506 15.2306 14.7506C15.0825 14.7506 14.936 14.7893 14.8085 14.8625C10.3327 17.4131 5.99938 20.1966 1.92902 23.1356C1.55977 23.4018 1.46444 23.9089 1.71137 24.2905C2.55094 25.5863 3.4778 26.895 4.4684 28.1839C3.28485 29.9667 2.1593 31.7521 1.0326 33.6343C0.798874 34.0245 0.912003 34.5278 1.28987 34.7805C5.16613 37.3779 9.55175 39.6143 14.3279 41.4298V43.1739C14.3279 43.6442 14.7098 44.0266 15.1801 44.0266H32.4171C32.8874 44.0266 33.2693 43.6442 33.2693 43.1739V42.1534C34.3455 42.2042 35.3355 42.2289 36.2847 42.2289C40.0932 42.2289 43.7771 41.8847 47.2353 41.2062C47.6746 41.1197 47.9738 40.704 47.9158 40.2598C47.6683 38.3535 47.3783 36.3939 47.0544 34.4305C47.8188 34.0141 48.5578 33.586 49.255 33.1556C49.6369 32.9204 49.7707 32.4263 49.5611 32.0301ZM21.4269 6.52398H26.1709V12.2158H21.4269V6.52398ZM19.1373 13.9213H28.4604V19.7389H19.1373V13.9213ZM14.3279 39.6063C10.1926 37.9915 6.35772 36.0438 2.91732 33.8108C3.80398 32.3476 4.67915 30.9605 5.57959 29.5917C5.63817 29.6618 6.28076 30.4391 6.37207 30.5479C6.7017 30.9364 7.03764 31.3217 7.37875 31.7047C6.80908 32.6632 6.41284 33.3374 6.41284 33.3376C6.1751 33.7431 6.31177 34.2665 6.7172 34.5045C6.84756 34.5812 6.99687 34.6217 7.1479 34.6217C7.44938 34.6217 7.73135 34.4603 7.89444 34.1827C7.94842 34.0908 8.20569 33.6535 8.57608 33.0278C8.94763 33.4255 9.34157 33.8375 9.7694 34.2748C9.50581 34.7575 9.34387 35.0578 9.34387 35.0578C9.11991 35.4713 9.27381 35.9899 9.68728 36.2135C9.81189 36.281 9.95201 36.3166 10.0927 36.3166C10.4068 36.3166 10.6945 36.1452 10.8433 35.8693H10.8427C10.8553 35.8466 11.0276 35.5307 11.0276 35.5307C11.46 35.9514 11.9217 36.3896 12.4265 36.8582C12.388 37.0169 12.3955 37.184 12.4512 37.342C12.527 37.5567 12.682 37.7293 12.8871 37.8275C13.0031 37.8832 13.1271 37.9113 13.2552 37.9113C13.3522 37.9113 13.4481 37.8938 13.5394 37.8605C13.8001 38.0919 14.0608 38.3237 14.3279 38.5554V39.6063ZM14.3913 20.2732C14.2747 20.2149 14.1453 20.181 14.0103 20.181C13.8409 20.181 13.6767 20.231 13.5365 20.3255C11.2935 21.8272 9.08718 23.3995 6.97849 24.9985C6.60407 25.2825 6.52999 25.8183 6.81425 26.1938C6.97792 26.4078 7.22542 26.5306 7.49418 26.5306C7.68196 26.5306 7.85998 26.4706 8.00871 26.3572C10.0427 24.8152 12.1683 23.2996 14.3279 21.8491V23.6252C12.469 24.985 10.6744 26.3678 8.99013 27.7369C8.81383 27.8807 8.70357 28.0846 8.68003 28.3109C8.65648 28.5377 8.72309 28.7599 8.86666 28.9362C9.02975 29.1364 9.27094 29.2512 9.52878 29.2512C9.72403 29.2512 9.91469 29.1832 10.0663 29.0603C11.3607 28.0076 12.7923 26.8973 14.3279 25.7534V27.8718C13.2523 28.7493 12.2152 29.6228 11.2424 30.4706C11.0707 30.6202 10.9679 30.8276 10.9524 31.055C10.9369 31.2821 11.0104 31.5017 11.1603 31.6734C11.3222 31.8592 11.5565 31.966 11.8029 31.966C12.009 31.966 12.2083 31.8914 12.3633 31.7558C12.9611 31.235 13.6078 30.6851 14.3279 30.0862V32.6482L13.7439 33.1743C13.5756 33.3273 13.4763 33.5366 13.4653 33.7643C13.4539 33.9917 13.532 34.2099 13.6853 34.3788C13.8466 34.5565 14.0769 34.6587 14.317 34.6587C14.3204 34.6587 14.3239 34.6587 14.3279 34.6587V36.2833C14.2274 36.1952 14.128 36.1076 14.0316 36.0206C13.0714 35.14 12.233 34.338 11.4721 33.5751C11.4658 33.5679 11.421 33.5226 11.4141 33.516C10.5464 32.6411 9.79065 31.844 9.13484 31.1201C9.11646 31.092 9.09407 31.0667 9.04698 31.0173C8.03858 29.9041 7.07612 28.7617 6.18659 27.6209C5.27351 26.4577 4.40121 25.2552 3.58978 24.0424C7.15422 21.5016 10.9254 19.077 14.8085 16.8291C15.2151 17.7959 15.6705 18.7718 16.1667 19.7406H15.1801C14.8231 19.7406 14.5181 19.9614 14.3913 20.2732ZM31.5649 42.3211H16.0323V21.4461H31.5649V42.3211ZM33.2693 32.5302C33.4226 32.6609 33.6196 32.7344 33.8229 32.7344C34.0377 32.7344 34.2427 32.6543 34.4017 32.5078C34.5688 32.3531 34.6659 32.1426 34.6751 31.9152C34.6843 31.6875 34.6039 31.4699 34.4488 31.3033C34.0623 30.8844 33.6684 30.4629 33.2693 30.0402V22.8703C34.8106 20.9908 36.1728 19.0587 37.323 17.1205C39.763 19.0142 42.1301 20.9457 44.3669 22.8697C44.1154 23.1899 43.8581 23.5098 43.5962 23.8273C43.1994 24.308 42.79 24.7858 42.3685 25.2595C41.9366 25.7445 41.4921 26.2251 41.0362 26.7015C40.1495 27.6281 39.2169 28.5383 38.2648 29.4071C37.822 29.8123 37.3672 30.2174 36.9061 30.6162C35.7329 31.6307 34.5097 32.6118 33.2693 33.5338V32.5302ZM36.291 40.5242C35.2982 40.5242 34.2834 40.4998 33.2693 40.4519V39.9055C33.8728 39.7432 34.4695 39.5767 35.0529 39.4024L35.1259 39.38C35.7243 39.2011 36.3077 39.0154 36.8808 38.825L36.8975 38.8195C36.9314 38.8382 36.967 38.8566 37.0054 38.8761C37.083 38.9152 37.1593 38.9516 37.2386 38.9832C37.304 39.0093 37.3701 39.0314 37.4367 39.0524C37.5205 39.0788 37.605 39.1015 37.6911 39.1199C37.7583 39.1342 37.826 39.1457 37.8961 39.1555C37.9834 39.1673 38.0707 39.1744 38.1769 39.1802C38.1913 39.1819 38.2619 39.1874 38.2763 39.1874C38.3446 39.1874 38.4124 39.1848 38.4784 39.1799C38.63 39.1704 38.7782 39.1469 38.9229 39.113C38.9573 39.1049 38.9907 39.0943 39.0561 39.0725C39.1526 39.0446 39.2485 39.0151 39.3386 38.9772C39.38 38.9602 39.4185 38.9404 39.4874 38.9051C39.5678 38.8655 39.6476 38.8244 39.7211 38.7782C39.7625 38.7523 39.8021 38.7239 39.8647 38.678C39.9342 38.628 40.0019 38.5763 40.0657 38.5201C40.111 38.4799 40.1541 38.4374 40.1943 38.3963C40.2534 38.3369 40.3092 38.2751 40.3631 38.2091C40.4016 38.1617 40.4389 38.1135 40.4728 38.065C40.5216 37.9963 40.5664 37.9254 40.6112 37.8462C40.6405 37.7948 40.6692 37.7434 40.6951 37.6908C40.733 37.613 40.7657 37.5323 40.8024 37.4315C40.8082 37.4169 40.8139 37.4025 40.8191 37.3879C41.0431 37.296 41.2664 37.2007 41.4904 37.1048C41.4904 37.1048 42.2513 36.7852 42.3742 36.7315C42.6269 36.621 42.8778 36.5067 43.1288 36.391C43.2362 37.1912 43.3412 37.9877 43.4349 38.7727C43.4854 39.2017 43.8489 39.5253 44.2807 39.5253C44.3135 39.5253 44.3468 39.5233 44.3824 39.5193C44.8493 39.4636 45.1835 39.0383 45.1278 38.5717C45.0129 37.6021 44.8843 36.6193 44.7482 35.6301C44.9888 35.5121 45.2283 35.3923 45.4672 35.2706C45.7015 36.7241 45.9203 38.2039 46.1189 39.6806C42.9996 40.2405 39.6953 40.5242 36.291 40.5242ZM45.7124 33.2205C44.9699 33.6205 44.2113 34.0049 43.4578 34.3633C42.2496 34.9384 41.0155 35.4771 39.79 35.9637C38.7466 36.3732 37.7233 36.7465 36.7493 37.0729C36.7493 37.0729 36.7309 37.0787 36.7235 37.0813C36.167 37.2705 35.5922 37.4534 35.0093 37.6317L34.7262 37.719C34.2478 37.8631 33.762 38.0027 33.2693 38.1385V35.7331C33.449 36.1756 33.6265 36.6157 33.7999 37.0531C33.9303 37.3796 34.2409 37.5906 34.5924 37.5906C34.7009 37.5906 34.8066 37.5702 34.9077 37.5303C35.3441 37.3566 35.5583 36.8599 35.3849 36.4229C35.2 35.9586 35.0122 35.4908 34.8204 35.0208C34.7649 34.884 34.6724 34.7738 34.5634 34.6852C35.013 34.3455 35.4623 34.0049 35.9057 33.6532C36.0315 33.5533 36.6965 33.0152 36.7028 33.0103C36.708 33.0221 36.7131 33.0339 36.7183 33.0456C37.0037 33.6782 37.5274 34.164 38.1947 34.4144C38.3521 34.4735 38.5232 34.5189 38.7041 34.5493C38.7466 34.5565 38.7897 34.5597 38.8752 34.5654L38.9349 34.5723C38.9981 34.5798 39.0619 34.587 39.152 34.587C39.1738 34.587 39.1968 34.5867 39.2215 34.5858C39.3484 34.5835 39.4736 34.5657 39.6488 34.5407C39.6976 34.5356 39.7458 34.5295 39.7935 34.5189C39.9772 34.4778 40.1564 34.4184 40.2833 34.3581C40.3017 34.3529 40.3298 34.3429 40.3471 34.3349C41.0161 34.0265 41.5174 33.4775 41.7597 32.7884C42.0049 32.0889 41.955 31.3326 41.6185 30.6587C41.5484 30.5189 41.4628 30.3811 41.3537 30.2343C41.3302 30.203 41.3049 30.1743 41.2475 30.1092C41.178 30.0273 41.1079 29.9478 41.0327 29.8774C40.9925 29.839 40.9495 29.8039 40.8846 29.7511C40.8105 29.6908 40.7353 29.6337 40.6554 29.5811C40.6376 29.5696 40.6198 29.5584 40.602 29.5472C40.602 29.5472 40.9334 29.2265 41.0735 29.0881C41.418 28.749 41.7563 28.4068 42.0876 28.0631L42.4264 27.7125C43.2901 29.2684 44.1021 30.7802 44.8435 32.213C44.9905 32.4969 45.2811 32.6735 45.601 32.6735C45.7359 32.6735 45.8709 32.6405 45.992 32.5779C46.1947 32.4734 46.3441 32.2962 46.413 32.0792C46.4819 31.8621 46.4624 31.6312 46.3578 31.4288C45.5068 29.785 44.5943 28.0901 43.6433 26.3877C43.6433 26.3877 44.0861 25.8835 44.1314 25.8318C45.3603 27.9138 46.5502 30.0253 47.6752 32.1194C47.0188 32.5093 46.3601 32.8788 45.7124 33.2205Z" fill="#080F33"/>
</svg>
