<svg width="99" height="12" viewBox="0 0 99 12" fill="none" xmlns="http://www.w3.org/2000/svg">
<path d="M29.1909 4.8H21.9742V2.4H31.0592V0H21.9576C21.3255 0 20.7192 0.2511 20.2723 0.698062C19.8253 1.14502 19.5742 1.75123 19.5742 2.38333V4.81667C19.5742 5.44877 19.8253 6.05498 20.2723 6.50194C20.7192 6.9489 21.3255 7.2 21.9576 7.2H29.1742V9.6H19.7459V12H29.1909C29.823 12 30.4292 11.7489 30.8762 11.3019C31.3231 10.855 31.5742 10.2488 31.5742 9.61667V7.18333C31.5742 6.55123 31.3231 5.94502 30.8762 5.49806C30.4292 5.0511 29.823 4.8 29.1909 4.8Z" fill="white"/>
<path d="M43.167 0H35.9237C35.6108 -7.66157e-08 35.3009 0.0616587 35.0118 0.181453C34.7228 0.301247 34.4602 0.476828 34.239 0.698163C34.0178 0.919498 33.8424 1.18225 33.7228 1.4714C33.6032 1.76055 33.5418 2.07043 33.542 2.38333V9.61667C33.5418 9.92957 33.6032 10.2395 33.7228 10.5286C33.8424 10.8178 34.0178 11.0805 34.239 11.3018C34.4602 11.5232 34.7228 11.6988 35.0118 11.8185C35.3009 11.9383 35.6108 12 35.9237 12H43.167C43.7991 12 44.4053 11.7489 44.8523 11.3019C45.2992 10.855 45.5503 10.2488 45.5503 9.61667V2.38333C45.5503 1.75123 45.2992 1.14502 44.8523 0.698062C44.4053 0.2511 43.7991 0 43.167 0V0ZM43.1503 9.6H35.9503V2.4H43.1503V9.6Z" fill="white"/>
<path d="M68.517 5.8362e-07H61.4536C60.8215 5.8362e-07 60.2153 0.251101 59.7684 0.698063C59.3214 1.14502 59.0703 1.75123 59.0703 2.38333V12H61.4703V8.05667H68.5003V12H70.9003V2.38333C70.9005 2.07029 70.839 1.76027 70.7193 1.47101C70.5996 1.18175 70.4241 0.918931 70.2027 0.697574C69.9814 0.476217 69.7186 0.300671 69.4293 0.180975C69.14 0.0612786 68.83 -0.000218559 68.517 5.8362e-07ZM68.5003 5.65667H61.4703V2.4H68.5003V5.65667Z" fill="white"/>
<path d="M96.617 5.24523e-06H89.5553C89.2419 -0.000652248 88.9315 0.0605093 88.6417 0.179989C88.352 0.299468 88.0887 0.474919 87.8668 0.696297C87.645 0.917676 87.469 1.18063 87.3489 1.47012C87.2288 1.75961 87.167 2.06993 87.167 2.38334V12H89.567V8.05667H96.6003V12H99.0003V2.38334C99.0003 1.75124 98.7492 1.14503 98.3023 0.698067C97.8553 0.251106 97.2491 5.24523e-06 96.617 5.24523e-06ZM96.6003 5.65667H89.572V2.40001H96.6003V5.65667Z" fill="white"/>
<path d="M82.6352 9.6H81.6752L78.2352 1C78.1175 0.704928 77.914 0.451918 77.6511 0.273656C77.3882 0.0953943 77.0778 7.06164e-05 76.7602 0L74.6235 0C74.2022 0 73.7982 0.167342 73.5004 0.465212C73.2025 0.763082 73.0352 1.16708 73.0352 1.58833V12H75.4352V2.4H76.3952L79.8335 11C79.9507 11.2951 80.1538 11.5482 80.4165 11.7265C80.6791 11.9047 80.9893 12 81.3068 12H83.4435C83.8647 12 84.2687 11.8327 84.5666 11.5348C84.8645 11.2369 85.0318 10.8329 85.0318 10.4117V0H82.6318L82.6352 9.6Z" fill="white"/>
<path d="M50.0768 0H47.6768V9.61667C47.6768 10.2488 47.9279 10.855 48.3748 11.3019C48.8218 11.7489 49.428 12 50.0601 12H57.2767V9.6H50.0768V0Z" fill="white"/>
<path fill-rule="evenodd" clip-rule="evenodd" d="M2.54009 9.15C2.5827 9.10385 2.63419 9.06678 2.69146 9.04101C2.74874 9.01523 2.81063 9.00128 2.87343 9H13.3468C13.3911 9.00062 13.4343 9.01404 13.4711 9.03863C13.508 9.06322 13.537 9.09793 13.5546 9.13861C13.5722 9.17928 13.5777 9.22417 13.5704 9.26788C13.5631 9.31159 13.5433 9.35226 13.5134 9.385L11.2934 11.85C11.2508 11.8961 11.1993 11.9332 11.1421 11.959C11.0848 11.9848 11.0229 11.9987 10.9601 12H0.480094C0.435781 11.9994 0.392591 11.986 0.355721 11.9614C0.31885 11.9368 0.289869 11.9021 0.272262 11.8614C0.254656 11.8207 0.249175 11.7758 0.256478 11.7321C0.263781 11.6884 0.283557 11.6477 0.313428 11.615L2.54009 9.15ZM13.5234 7.10667C13.5533 7.13941 13.5731 7.18008 13.5804 7.22379C13.5877 7.2675 13.5822 7.31239 13.5646 7.35306C13.547 7.39373 13.518 7.42845 13.4811 7.45304C13.4443 7.47763 13.4011 7.49104 13.3568 7.49167L2.88009 7.5C2.8173 7.49872 2.75541 7.48477 2.69813 7.45899C2.64085 7.43322 2.58937 7.39615 2.54676 7.35L0.310094 4.89333C0.280224 4.8606 0.260447 4.81992 0.253144 4.77621C0.245841 4.7325 0.251323 4.68761 0.268929 4.64694C0.286535 4.60627 0.315517 4.57155 0.352387 4.54696C0.389258 4.52237 0.432448 4.50896 0.476761 4.50833L10.9534 4.5C11.0162 4.50128 11.0781 4.51523 11.1354 4.54101C11.1927 4.56678 11.2442 4.60385 11.2868 4.65L13.5234 7.10667ZM2.54009 0.15C2.5827 0.103852 2.63419 0.0667805 2.69146 0.0410058C2.74874 0.0152311 2.81063 0.00128393 2.87343 0L13.3534 0.00833333C13.3977 0.00895744 13.4409 0.0223708 13.4778 0.0469601C13.5147 0.0715493 13.5437 0.106267 13.5613 0.146938C13.5789 0.187608 13.5843 0.232499 13.577 0.276211C13.5697 0.319923 13.55 0.360595 13.5201 0.393333L11.2934 2.85C11.2508 2.89615 11.1993 2.93322 11.1421 2.95899C11.0848 2.98477 11.0229 2.99872 10.9601 3H0.480094C0.435781 2.99938 0.392591 2.98596 0.355721 2.96137C0.31885 2.93678 0.289869 2.90207 0.272262 2.8614C0.254656 2.82072 0.249175 2.77583 0.256478 2.73212C0.263781 2.68841 0.283557 2.64774 0.313428 2.615L2.54009 0.15Z" fill="white"/>
</svg>
