<svg width="388" height="402" viewBox="0 0 388 402" fill="none" xmlns="http://www.w3.org/2000/svg">
<g filter="url(#filter0_d_612:3718)">
<rect x="64" y="260.367" width="40.6741" height="83.6333" rx="10" fill="#007777"/>
<rect x="116.983" y="213.133" width="40.6741" height="130.867" rx="10" fill="#009797"/>
<rect x="169.967" y="166.767" width="40.6741" height="177.233" rx="10" fill="#00BEAC"/>
<rect x="222.95" y="135.133" width="40.6741" height="208.867" rx="10" fill="#00DBC6"/>
<rect x="275.933" y="110" width="40.6741" height="234" rx="10" fill="#01FFE7"/>
</g>
<g filter="url(#filter1_d_612:3718)">
<path d="M49.7276 199.507C46.6938 199.657 44.3563 202.239 44.5067 205.272C44.6572 208.306 47.2386 210.644 50.2724 210.493L49.7276 199.507ZM255.346 44.7062C254.631 41.7539 251.659 39.9398 248.706 40.6543L200.595 52.2981C197.643 53.0127 195.829 55.9852 196.543 58.9376C197.258 61.8899 200.23 63.704 203.183 62.9895L245.948 52.6394L256.298 95.4048C257.013 98.3571 259.985 100.171 262.938 99.4567C265.89 98.7422 267.704 95.7696 266.989 92.8173L255.346 44.7062ZM168.962 149.47L165.286 145.379L168.962 149.47ZM50 205C50.2724 210.493 50.2748 210.493 50.2775 210.493C50.2787 210.493 50.2816 210.493 50.284 210.493C50.2887 210.492 50.2944 210.492 50.3011 210.492C50.3143 210.491 50.3313 210.49 50.3519 210.489C50.393 210.487 50.4489 210.483 50.519 210.479C50.6594 210.47 50.8574 210.457 51.1109 210.438C51.6181 210.399 52.3478 210.337 53.2849 210.239C55.1588 210.043 57.863 209.706 61.2744 209.135C68.0955 207.994 77.7548 205.916 89.2631 202.163C112.281 194.656 142.734 180.431 172.638 153.561L165.286 145.379C136.728 171.039 107.7 184.579 85.8524 191.705C74.928 195.268 65.8084 197.223 59.4588 198.286C56.2848 198.817 53.8057 199.125 52.1427 199.298C51.3113 199.385 50.6842 199.438 50.2765 199.469C50.0727 199.485 49.9238 199.495 49.8316 199.501C49.7856 199.503 49.7537 199.505 49.7363 199.506C49.7276 199.507 49.7225 199.507 49.721 199.507C49.7203 199.507 49.7205 199.507 49.7216 199.507C49.7221 199.507 49.7236 199.507 49.7239 199.507C49.7256 199.507 49.7276 199.507 50 205ZM172.638 153.561C192.909 135.347 213.451 109.077 228.812 87.5844C236.522 76.7964 242.983 67.1315 247.519 60.1611C249.787 56.6749 251.576 53.86 252.8 51.9124C253.412 50.9386 253.883 50.1814 254.202 49.6655C254.362 49.4074 254.483 49.2097 254.566 49.0753C254.607 49.0081 254.639 48.9567 254.66 48.9216C254.671 48.904 254.679 48.8905 254.685 48.8811C254.688 48.8763 254.69 48.8727 254.692 48.87C254.693 48.8687 254.693 48.8675 254.694 48.8668C254.694 48.8658 254.695 48.8651 250 46C245.305 43.1349 245.305 43.1347 245.305 43.1348C245.305 43.1351 245.305 43.1355 245.304 43.1362C245.303 43.1377 245.302 43.1402 245.3 43.1437C245.296 43.1508 245.289 43.1619 245.279 43.1771C245.261 43.2074 245.232 43.254 245.194 43.3163C245.117 43.4409 245.002 43.6286 244.848 43.8764C244.542 44.3721 244.084 45.1079 243.486 46.0595C242.29 47.9629 240.533 50.7287 238.299 54.1618C233.83 61.03 227.46 70.5583 219.862 81.1883C204.608 102.531 184.631 127.996 165.286 145.379L172.638 153.561Z" fill="#50687E"/>
</g>
<path d="M288.567 340.354C288.57 340.354 288.572 340.354 288.575 340.354L304.691 340.126C304.374 340.874 304.19 341.683 304.161 342.516L304.16 342.555L304.159 342.594L303.896 355.659L303.896 355.667L303.896 355.675C303.823 359.942 302.125 363.953 299.039 367.039C295.955 370.122 291.948 371.82 287.686 371.896C283.48 371.95 279.621 370.368 276.719 367.466C273.858 364.605 272.3 360.755 272.354 356.565C272.43 352.302 274.127 348.295 277.211 345.211C280.295 342.127 284.304 340.429 288.567 340.354ZM325.798 342.608C325.8 341.636 325.589 340.693 325.203 339.834L341.76 339.6L341.768 339.599L341.776 339.599C351.751 339.428 361.16 335.416 368.244 328.331C375.361 321.215 379.388 311.805 379.512 301.85C379.681 291.851 375.917 282.446 368.89 275.411C361.888 268.315 352.449 264.528 342.472 264.673C332.511 264.796 323.078 268.846 315.983 275.941C308.869 283.055 304.843 292.459 304.715 302.409L304.431 315.513L304.429 315.567L304.429 315.621C304.427 316.604 304.643 317.558 305.038 318.424L288.463 318.673L288.451 318.673C278.477 318.844 269.068 322.856 261.983 329.941C254.865 337.059 250.838 346.471 250.715 356.429C250.57 366.408 254.337 375.817 261.374 382.854C268.388 389.868 277.818 393.658 287.799 393.513C297.76 393.39 307.193 389.34 314.288 382.245C321.404 375.129 325.43 365.722 325.556 355.768C325.556 355.762 325.556 355.756 325.556 355.75L325.798 342.698L325.798 342.653L325.798 342.608ZM341.653 317.875L325.593 318.116C325.901 317.376 326.081 316.577 326.109 315.756L326.111 315.708L326.112 315.66L326.332 302.554C326.405 298.287 328.103 294.276 331.189 291.19C334.273 288.107 338.28 286.409 342.543 286.333C346.749 286.28 350.607 287.861 353.509 290.763C356.381 293.635 357.946 297.507 357.874 301.653L357.874 301.654C357.801 305.921 356.103 309.932 353.017 313.018C349.932 316.103 345.922 317.801 341.658 317.875C341.656 317.875 341.655 317.875 341.653 317.875Z" fill="#00DBC6" stroke="#081518" stroke-width="11"/>
<defs>
<filter id="filter0_d_612:3718" x="20" y="70" width="340.607" height="322" filterUnits="userSpaceOnUse" color-interpolation-filters="sRGB">
<feFlood flood-opacity="0" result="BackgroundImageFix"/>
<feColorMatrix in="SourceAlpha" type="matrix" values="0 0 0 0 0 0 0 0 0 0 0 0 0 0 0 0 0 0 127 0" result="hardAlpha"/>
<feOffset dy="4"/>
<feGaussianBlur stdDeviation="22"/>
<feComposite in2="hardAlpha" operator="out"/>
<feColorMatrix type="matrix" values="0 0 0 0 0 0 0 0 0 0 0 0 0 0 0 0 0 0 0.45 0"/>
<feBlend mode="normal" in2="BackgroundImageFix" result="effect1_dropShadow_612:3718"/>
<feBlend mode="normal" in="SourceGraphic" in2="effect1_dropShadow_612:3718" result="shape"/>
</filter>
<filter id="filter1_d_612:3718" x="0.5" y="0.498535" width="310.645" height="258.001" filterUnits="userSpaceOnUse" color-interpolation-filters="sRGB">
<feFlood flood-opacity="0" result="BackgroundImageFix"/>
<feColorMatrix in="SourceAlpha" type="matrix" values="0 0 0 0 0 0 0 0 0 0 0 0 0 0 0 0 0 0 127 0" result="hardAlpha"/>
<feOffset dy="4"/>
<feGaussianBlur stdDeviation="22"/>
<feComposite in2="hardAlpha" operator="out"/>
<feColorMatrix type="matrix" values="0 0 0 0 0 0 0 0 0 0 0 0 0 0 0 0 0 0 0.45 0"/>
<feBlend mode="normal" in2="BackgroundImageFix" result="effect1_dropShadow_612:3718"/>
<feBlend mode="normal" in="SourceGraphic" in2="effect1_dropShadow_612:3718" result="shape"/>
</filter>
</defs>
</svg>
