<svg width="12" height="18" viewBox="0 0 12 18" fill="none" xmlns="http://www.w3.org/2000/svg">
<rect width="12" height="18" fill="#E5E5E5"/>
<g clip-path="url(#clip0_0_1)">
<rect width="1440" height="1083" transform="translate(-212 -20)" fill="white"/>
<rect x="-212" y="-20" width="1440" height="3262" fill="#1D2430"/>
<rect x="-24" y="-20" width="218" height="64" fill="#293141"/>
<circle cx="6" cy="8" r="14" fill="#F68F07"/>
<path d="M10.459 5.79238C10.3063 4.01593 8.93587 3.4206 7.20405 3.25081V0.785645H5.86392V3.18502C5.51205 3.18502 5.15165 3.19244 4.79409 3.20093V0.785645H3.45397L3.45302 3.24869C3.1628 3.25505 2.87732 3.26142 2.59943 3.26142V3.25399L0.750949 3.25293V4.85534C0.750949 4.85534 1.74111 4.83412 1.72403 4.85428C2.26748 4.85428 2.44389 5.2066 2.49511 5.51116V8.3191C2.53304 8.3191 2.58141 8.32122 2.63642 8.32971H2.49511L2.49416 12.2636C2.47045 12.4546 2.36991 12.7592 1.99054 12.7602C2.00761 12.7772 1.01651 12.7602 1.01651 12.7602L0.75 14.5515H2.49511C2.81947 14.5515 3.13909 14.5579 3.45207 14.56L3.45302 17.0528H4.7922V14.5865C5.15924 14.595 5.5149 14.5982 5.86297 14.5982L5.86202 17.0528H7.20215V14.5653C9.45561 14.421 11.0347 13.7853 11.2301 11.4167C11.3885 9.50976 10.5871 8.65762 9.30766 8.31379C10.0863 7.87233 10.5729 7.09235 10.459 5.79238V5.79238ZM8.58306 11.1217C8.58306 12.9841 5.73304 12.7729 4.82349 12.7729V9.46944C5.73304 9.47156 8.58306 9.17973 8.58306 11.1217V11.1217ZM7.95899 6.462C7.95899 8.15673 5.58034 7.95829 4.82349 7.95935V4.96465C5.58129 4.96465 7.95994 4.6951 7.95899 6.462Z" fill="white"/>
</g>
<defs>
<clipPath id="clip0_0_1">
<rect width="1440" height="1083" fill="white" transform="translate(-212 -20)"/>
</clipPath>
</defs>
</svg>
