<svg width="107" height="41" viewBox="0 0 107 41" fill="none" xmlns="http://www.w3.org/2000/svg">
<path d="M46.6902 18.977C46.6575 17.7681 46.8433 16.5632 47.2385 15.4202C47.5537 14.5334 48.0689 13.7312 48.7442 13.0757C49.3823 12.4803 50.1491 12.04 50.985 11.7893C51.8802 11.5218 52.8102 11.389 53.7445 11.3951C54.665 11.3913 55.581 11.5241 56.4625 11.7893C57.2999 12.0427 58.0691 12.4825 58.7122 13.0757C59.394 13.7298 59.9163 14.532 60.2386 15.4202C60.9856 17.7265 60.9856 20.2097 60.2386 22.516C59.9241 23.4089 59.4066 24.2165 58.727 24.8754C58.0855 25.4707 57.3158 25.9108 56.4773 26.1618C55.5962 26.4286 54.68 26.5615 53.7593 26.556C52.825 26.5636 51.8947 26.4307 50.9999 26.1618C50.1629 25.9134 49.3956 25.4729 48.7591 24.8754C48.0825 24.2209 47.5671 23.4184 47.2534 22.5309C46.8529 21.3899 46.6621 20.1859 46.6902 18.977ZM53.7445 24.0603C54.289 24.0646 54.8309 23.9846 55.351 23.8232C55.853 23.6654 56.3068 23.3829 56.67 23.0021C57.0788 22.5529 57.3826 22.0183 57.5592 21.4371C58.0018 19.8279 58.0018 18.1291 57.5592 16.5199C57.3819 15.9381 57.0783 15.4027 56.67 14.9519C56.3058 14.573 55.8523 14.2917 55.351 14.1338C54.8311 13.9715 54.2892 13.8905 53.7445 13.8938C53.192 13.8894 52.6421 13.9703 52.1143 14.1338C51.6139 14.2917 51.1613 14.573 50.7983 14.9519C50.3867 15.4002 50.0826 15.9365 49.9091 16.5199C49.4824 18.1312 49.4824 19.8258 49.9091 21.4371C50.0818 22.02 50.386 22.5554 50.7983 23.0021C51.1604 23.3828 51.6132 23.6653 52.1143 23.8232C52.6423 23.9857 53.1922 24.0657 53.7445 24.0603Z" fill="white"/>
<path d="M65.3638 30.3883H62.6665V13.7899H68.7249C69.4293 13.7866 70.1297 13.8956 70.7997 14.1129C71.4438 14.3235 72.0275 14.6865 72.5011 15.1711C73.0187 15.7196 73.411 16.3739 73.6511 17.0888C74.2201 18.9976 74.2201 21.0309 73.6511 22.9397C73.411 23.6555 73.0187 24.3108 72.5011 24.8604C72.0275 25.345 71.4438 25.708 70.7997 25.9186C70.1295 26.1349 69.4291 26.2429 68.7249 26.2387H65.3638V30.3883ZM68.3722 23.8942C68.775 23.8982 69.1757 23.8351 69.5578 23.7074C69.925 23.5828 70.2538 23.3653 70.5122 23.0761C70.8081 22.7308 71.0273 22.3267 71.1554 21.8905C71.4715 20.6657 71.4715 19.3807 71.1554 18.1558C71.0277 17.7194 70.8084 17.3153 70.5122 16.9702C70.254 16.6802 69.9252 16.4617 69.5578 16.3359C69.1757 16.2083 68.775 16.1452 68.3722 16.1492H65.3638V23.909L68.3722 23.8942Z" fill="white"/>
<path d="M77.3995 16.0723H75.3247V13.7278H77.3995V10.6779H80.0967V13.7278H83.0015V16.0723H80.0967V22.5042C80.0736 22.7163 80.1098 22.9306 80.2014 23.1232C80.293 23.3158 80.4363 23.4792 80.6154 23.595C80.9963 23.8036 81.4263 23.906 81.8603 23.8914H83.0015V26.2359H81.5195C80.9794 26.2402 80.4414 26.1674 79.9219 26.0195C79.4394 25.884 78.9929 25.643 78.6147 25.3141C78.221 24.9651 77.9161 24.5271 77.7255 24.0366C77.4933 23.4143 77.3827 22.7533 77.3995 22.0893V16.0723Z" fill="white"/>
<path d="M85.0718 13.7898H87.7749V26.2386H85.0777L85.0718 13.7898Z" fill="white"/>
<path d="M90.0509 18.5622C90.0223 17.4698 90.1879 16.3809 90.5399 15.3463C90.8185 14.5475 91.2769 13.8235 91.8796 13.23C92.4408 12.6947 93.1186 12.297 93.8596 12.0681C94.6424 11.8291 95.4568 11.7101 96.2753 11.7154H101.67V14.2051H96.6932C96.2406 14.2026 95.7897 14.2624 95.3535 14.383C94.9422 14.499 94.5603 14.7011 94.2331 14.9758C93.8851 15.269 93.6032 15.6327 93.4061 16.0428C93.1654 16.5758 93.0247 17.1485 92.9911 17.7323H101.664V20.2221H92.9497V26.239H90.0449L90.0509 18.5622Z" fill="white"/>
<path d="M103.371 13.7898H106.068V26.2386H103.371V13.7898Z" fill="white"/>
<path d="M38.4032 12.1302C38.4043 12.1203 38.4043 12.1104 38.4032 12.1005C38.2459 11.7803 37.9802 11.5262 37.6533 11.3833C37.4816 11.3138 37.2989 11.2756 37.1138 11.2706H31.7549C31.126 11.2706 30.5229 11.5204 30.0782 11.9651C29.6335 12.4098 29.3837 13.0129 29.3837 13.6418V25.5245C29.3837 26.5464 28.9777 27.5265 28.2551 28.2491C27.5325 28.9718 26.5524 29.3777 25.5305 29.3777H14.5044C13.4825 29.3777 12.5024 28.9718 11.7798 28.2491C11.0572 27.5265 10.6512 26.5464 10.6512 25.5245V14.5014C10.6512 13.4795 11.0572 12.4994 11.7798 11.7768C12.5024 11.0541 13.4825 10.6482 14.5044 10.6482H26.3871C27.016 10.6482 27.6191 10.3984 28.0638 9.95368C28.5085 9.50899 28.7583 8.90586 28.7583 8.27698V2.97142C28.7593 2.68217 28.6757 2.39896 28.5177 2.15669C28.3596 1.91441 28.1342 1.72367 27.8691 1.60797C23.5935 -0.218022 18.8156 -0.498237 14.3559 0.815455C9.89618 2.12915 6.0331 4.95476 3.43016 8.80695C0.827227 12.6591 -0.3531 17.2975 0.0919072 21.9253C0.536915 26.5531 2.57949 30.8815 5.86879 34.1671C9.15809 37.4528 13.4888 39.4904 18.1171 39.9302C22.7454 40.37 27.3825 39.1845 31.2317 36.5772C35.081 33.9699 37.9022 30.1037 39.2109 25.6425C40.5196 21.1813 40.234 16.4037 38.4032 12.1302Z" fill="#00DBC6"/>
<path d="M87.1762 9.47754H85.6646C85.3372 9.47754 85.0718 9.74294 85.0718 10.0703V11.582C85.0718 11.9094 85.3372 12.1748 85.6646 12.1748H87.1762C87.5036 12.1748 87.769 11.9094 87.769 11.582V10.0703C87.769 9.74294 87.5036 9.47754 87.1762 9.47754Z" fill="white"/>
<path d="M105.475 9.47754H103.963C103.636 9.47754 103.371 9.74294 103.371 10.0703V11.582C103.371 11.9094 103.636 12.1748 103.963 12.1748H105.475C105.802 12.1748 106.068 11.9094 106.068 11.582V10.0703C106.068 9.74294 105.802 9.47754 105.475 9.47754Z" fill="white"/>
</svg>
