<svg width="32" height="30" viewBox="0 0 32 30" fill="none" xmlns="http://www.w3.org/2000/svg">
<path d="M30 25V26.6667C30 27.5507 29.6488 28.3986 29.0237 29.0237C28.3986 29.6488 27.5507 30 26.6667 30H3.33333C1.48333 30 0 28.5 0 26.6667V3.33333C0 2.44928 0.351189 1.60143 0.976311 0.976311C1.60143 0.351189 2.44928 0 3.33333 0H26.6667C27.5507 0 28.3986 0.351189 29.0237 0.976311C29.6488 1.60143 30 2.44928 30 3.33333V5H15C13.15 5 11.6667 6.5 11.6667 8.33333V21.6667C11.6667 22.5507 12.0179 23.3986 12.643 24.0237C13.2681 24.6488 14.1159 25 15 25H30ZM15 21.6667H31.6667V8.33333H15V21.6667ZM21.6667 17.5C21.0036 17.5 20.3677 17.2366 19.8989 16.7678C19.4301 16.2989 19.1667 15.663 19.1667 15C19.1667 14.337 19.4301 13.7011 19.8989 13.2322C20.3677 12.7634 21.0036 12.5 21.6667 12.5C22.3297 12.5 22.9656 12.7634 23.4344 13.2322C23.9033 13.7011 24.1667 14.337 24.1667 15C24.1667 15.663 23.9033 16.2989 23.4344 16.7678C22.9656 17.2366 22.3297 17.5 21.6667 17.5Z" fill="white"/>
</svg>
